<svg width="40" height="31" viewBox="0 0 40 31" fill="none" xmlns="http://www.w3.org/2000/svg">
<g clip-path="url(#clip0_511_14821)">
<path d="M14.5061 20.7303L12.7163 18.3944H11.75V22.213H12.7163V19.8772L14.5061 22.213H15.4683V18.3944H14.5061V20.7303Z" fill="#231815"/>
<path d="M27.3279 20.4581C27.3279 20.5678 27.3238 20.6856 27.3157 20.7993C27.3075 20.9171 27.2831 21.0227 27.2382 21.1162C27.1974 21.2096 27.1322 21.2868 27.0425 21.3477C26.9569 21.4087 26.8305 21.4371 26.6715 21.4371C26.5125 21.4371 26.3861 21.4087 26.2964 21.3477C26.2067 21.2868 26.1415 21.2137 26.1007 21.1162C26.0599 21.0227 26.0355 20.9171 26.0273 20.7993C26.0192 20.6815 26.0151 20.5678 26.0151 20.4581V18.3822H25.0488V20.5962C25.0488 21.1893 25.1834 21.624 25.4484 21.8962C25.7134 22.1683 26.1211 22.3065 26.6715 22.3065C27.2219 22.3065 27.6296 22.1683 27.8946 21.8962C28.1596 21.624 28.2942 21.1893 28.2942 20.5962V18.3822H27.332V20.4581H27.3279Z" fill="#231815"/>
<path d="M18.918 19.3288H19.713V22.3066H20.6793V19.3288H21.4743V18.4879H18.918V19.3288Z" fill="#231815"/>
<path d="M39.4007 11.785L20.8623 0.190932C20.6584 0.064998 20.4301 0 20.1896 0C19.949 0 19.7207 0.064998 19.5169 0.190932L0.599327 11.785C0.224238 12.0165 0 12.4187 0 12.8615C0 13.3043 0.224238 13.7024 0.599327 13.938L7.89318 18.4554L8.49251 18.8291L8.60259 28.3635C8.60259 28.5748 8.83906 28.6966 9.01845 28.587C11.3954 27.1123 13.3727 26.9254 14.9791 27.1489C17.1726 27.4535 18.9461 28.6398 19.6025 30.8091C19.6351 30.9228 19.737 31 19.8553 31H20.4138C20.4138 31 20.4138 30.9959 20.4138 30.9919H20.528C20.6462 30.9919 20.7481 30.9106 20.7808 30.8009C21.4372 28.6316 23.2107 27.4414 25.4041 27.1407C27.0105 26.9173 28.9879 27.1042 31.3648 28.5788C31.5442 28.6926 31.7807 28.5707 31.7807 28.3554L31.6706 18.821V18.6585L32.1924 18.3335L39.4007 13.934C39.7758 13.7024 40 13.3002 40 12.8574C40 12.4146 39.7758 12.0165 39.4007 11.7809V11.785ZM30.3578 27.0351C28.1398 25.6864 24.6213 25.723 22.4564 26.9986C21.4657 27.5835 20.8011 28.3513 20.1733 29.3913C20.1651 29.2979 19.8349 28.8226 19.7452 28.7048C19.2559 28.0507 18.6811 27.4454 17.9309 27.0067C15.7537 25.7352 12.2475 25.6945 10.0296 27.0432C9.84609 27.157 9.60962 27.0351 9.60962 26.8198L9.49954 12.5731C9.49954 10.7003 11.4239 9.15254 13.7071 9.15254C13.9598 9.15254 14.2085 9.17691 14.4491 9.21347C16.1818 9.49784 17.568 10.6962 17.7678 12.1749C15.8312 12.3496 13.5154 12.8127 13.5154 13.9218V16.6029C13.5154 17.7445 15.6681 18.1751 17.5762 18.3416C17.5762 18.3619 17.568 18.3823 17.568 18.4066C17.5395 18.6138 17.3723 19.7594 17.2459 20.8725C17.1685 21.5387 17.0054 21.815 16.3979 22.274C15.9005 22.6518 15.7089 23.383 15.6314 23.8868C15.5784 24.0005 15.5377 24.1183 15.5377 24.2524C15.5377 25.4508 17.8901 25.7677 19.3089 25.8448C19.4883 26.1455 19.8063 26.3608 20.1855 26.3608C20.5647 26.3608 20.8786 26.1495 21.058 25.853C22.4646 25.7798 24.9067 25.4752 24.9067 24.2565C24.9067 24.1386 24.8782 24.033 24.8374 23.9315C24.7681 23.4521 24.5724 22.7249 23.9853 22.274C23.3819 21.815 23.2148 21.5387 23.1373 20.8725C23.0476 20.0763 22.9253 19.15 22.8641 18.6829L22.8315 18.4513C22.8315 18.4026 22.8193 18.3579 22.8152 18.3132C24.7477 18.1588 26.9942 17.7607 26.9942 16.607V13.9258C26.9942 12.7437 24.601 12.3212 22.591 12.1668C22.7051 11.4031 23.1088 10.7125 23.7366 10.1884C23.7448 10.1803 23.7529 10.1722 23.7652 10.1641C23.9405 10.0219 24.1321 9.89595 24.3319 9.77814C24.3482 9.77002 24.3645 9.75783 24.3808 9.74971C25.0372 9.38815 25.8322 9.17285 26.6803 9.17285C26.9616 9.17285 27.2388 9.19722 27.5079 9.24191C29.3833 9.5669 30.6391 10.9319 30.6391 12.569C30.6391 12.569 30.6595 23.3384 30.6635 23.3424L30.7736 26.8117C30.7736 27.027 30.5372 27.1448 30.3537 27.0351H30.3578ZM20.2263 22.6274C19.79 22.6274 18.3875 22.6518 17.2337 22.9402C17.7923 22.4568 18.1225 21.9368 18.2326 20.9862C18.3753 19.731 18.5669 18.4391 18.5669 18.4351V18.3538C18.571 18.0816 19.0684 17.6063 19.8471 17.4926L20.1937 17.4398L20.5402 17.4926C21.3189 17.6063 21.8163 18.0776 21.8163 18.3538C21.8163 18.3619 21.8326 18.5041 21.8612 18.7397C21.9264 19.2191 22.0487 20.1697 22.1425 20.9862C22.2485 21.9206 22.5706 22.4365 23.1128 22.9159C21.9753 22.6518 20.6462 22.6274 20.2263 22.6274ZM23.9976 24.2199C24.0016 24.2402 24.0016 24.2565 24.0057 24.2768C23.598 24.5083 22.6154 24.8008 21.1273 24.8902C20.9601 24.5368 20.6095 24.289 20.1896 24.289C19.7696 24.289 19.4231 24.5368 19.2559 24.8861C17.829 24.7927 16.8749 24.5124 16.4672 24.2849C16.4713 24.2565 16.4713 24.2361 16.4795 24.2077C16.985 23.9315 18.2693 23.578 20.2263 23.578C22.1833 23.578 23.5083 23.9396 23.9976 24.2199ZM21.1028 16.6557C20.9805 16.2576 20.6217 15.9692 20.2018 15.9692C19.7819 15.9692 19.4231 16.2576 19.3008 16.6557C18.7993 16.7939 18.3671 17.0457 18.0614 17.3585C16.1207 17.2001 14.9506 16.8507 14.5959 16.607C15.0647 16.282 16.9891 15.7701 20.2548 15.7701C23.5205 15.7701 25.4449 16.282 25.9138 16.607C25.555 16.8548 24.3441 17.2123 22.3504 17.3667C22.0446 17.0498 21.6084 16.7979 21.1028 16.6557ZM20.2589 14.7627C19.4312 14.7627 16.1941 14.8114 14.5266 15.5305V13.9827C14.7793 13.7146 16.2226 13.2637 18.7422 13.1296H18.7708C18.9828 13.1174 19.1785 13.1093 19.3579 13.1052C19.5739 13.0971 19.7982 13.093 20.0265 13.093C20.0958 13.093 20.1651 13.093 20.214 13.093C20.316 13.093 20.4587 13.093 20.6299 13.0971C20.6707 13.0971 20.7074 13.0971 20.7481 13.0971C20.9194 13.0971 21.111 13.1052 21.323 13.1134L21.8123 13.1337C24.3033 13.2718 25.7262 13.7186 25.979 13.9868V15.5345C24.3115 14.8155 21.0743 14.7667 20.2467 14.7667L20.2589 14.7627ZM38.8666 13.0768L31.6706 17.4642V12.569C31.6706 11.0497 30.9245 9.70908 29.5546 8.91692C28.7269 8.4335 27.7321 8.15319 26.6599 8.15319C24.0016 8.15319 21.8041 9.88376 21.5309 12.0978C21.0213 12.0774 20.4464 12.0734 20.2181 12.0734C19.9409 12.0734 19.4679 12.0571 18.8034 12.0937C18.6321 10.7084 17.727 9.51815 16.4061 8.81536C16.3572 8.78692 16.3001 8.76661 16.2471 8.74224C16.0391 8.64068 15.8271 8.53912 15.6029 8.46599C15.4031 8.39693 15.1952 8.34819 14.9832 8.29944C14.8935 8.27913 14.8079 8.25069 14.7182 8.23444C14.3757 8.1735 14.021 8.13288 13.6541 8.13288C10.8124 8.13288 8.42728 10.1316 8.42728 12.5649V17.5901L1.1375 13.0768C0.978494 12.9752 0.978494 12.7437 1.1375 12.6462L20.055 1.05216C20.0958 1.02778 20.1447 1.01559 20.1896 1.01559C20.2344 1.01559 20.2834 1.02778 20.3241 1.05216L38.8625 12.6462C39.0215 12.7477 39.0215 12.9793 38.8625 13.0768H38.8666Z" fill="#231815"/>
</g>
<defs>
<clipPath id="clip0_511_14821">
<rect width="40" height="31" fill="white"/>
</clipPath>
</defs>
</svg>
