<svg width="16" height="16" viewBox="0 0 16 16" fill="none" xmlns="http://www.w3.org/2000/svg">
<path d="M13.354 6.355L8.35403 11.355C8.30759 11.4015 8.25245 11.4384 8.19175 11.4635C8.13105 11.4887 8.06599 11.5016 8.00028 11.5016C7.93457 11.5016 7.86951 11.4887 7.80881 11.4635C7.74811 11.4384 7.69296 11.4015 7.64653 11.355L2.64653 6.355C2.55271 6.26118 2.5 6.13394 2.5 6.00125C2.5 5.86857 2.55271 5.74132 2.64653 5.6475C2.74035 5.55368 2.8676 5.50098 3.00028 5.50098C3.13296 5.50098 3.26021 5.55368 3.35403 5.6475L8.00028 10.2944L12.6465 5.6475C12.693 5.60105 12.7481 5.5642 12.8088 5.53906C12.8695 5.51392 12.9346 5.50098 13.0003 5.50098C13.066 5.50098 13.131 5.51392 13.1917 5.53906C13.2524 5.5642 13.3076 5.60105 13.354 5.6475C13.4005 5.69396 13.4373 5.74911 13.4625 5.80981C13.4876 5.8705 13.5006 5.93556 13.5006 6.00125C13.5006 6.06695 13.4876 6.13201 13.4625 6.1927C13.4373 6.2534 13.4005 6.30855 13.354 6.355Z" fill="#09090B"/>
</svg>
