<svg width="16" height="16" viewBox="0 0 16 16" fill="none" xmlns="http://www.w3.org/2000/svg">
<path d="M15.375 6.66563L13.2706 4.33125C13.1769 4.22704 13.0623 4.1437 12.9343 4.08663C12.8063 4.02957 12.6677 4.00005 12.5275 4H8.5V2C8.5 1.86739 8.44732 1.74021 8.35355 1.64645C8.25979 1.55268 8.13261 1.5 8 1.5C7.86739 1.5 7.74021 1.55268 7.64645 1.64645C7.55268 1.74021 7.5 1.86739 7.5 2V4H2.5C2.23478 4 1.98043 4.10536 1.79289 4.29289C1.60536 4.48043 1.5 4.73478 1.5 5V9C1.5 9.26522 1.60536 9.51957 1.79289 9.70711C1.98043 9.89464 2.23478 10 2.5 10H7.5V14C7.5 14.1326 7.55268 14.2598 7.64645 14.3536C7.74021 14.4473 7.86739 14.5 8 14.5C8.13261 14.5 8.25979 14.4473 8.35355 14.3536C8.44732 14.2598 8.5 14.1326 8.5 14V10H12.5275C12.6677 9.99995 12.8063 9.97043 12.9343 9.91337C13.0623 9.8563 13.1769 9.77296 13.2706 9.66875L15.375 7.33437C15.4576 7.24258 15.5033 7.12347 15.5033 7C15.5033 6.87653 15.4576 6.75742 15.375 6.66563ZM12.5275 9H2.5V5H12.5275L14.3275 7L12.5275 9Z" fill="#18181B"/>
</svg>
