<svg width="16" height="16" viewBox="0 0 16 16" fill="none" xmlns="http://www.w3.org/2000/svg">
<path d="M15.7348 5.55867L8.23484 1.55867C8.1625 1.52015 8.0818 1.5 7.99984 1.5C7.91789 1.5 7.83718 1.52015 7.76484 1.55867L0.264844 5.55867C0.184846 5.6013 0.117944 5.66488 0.0712937 5.7426C0.0246433 5.82033 0 5.90927 0 5.99992C0 6.09057 0.0246433 6.17951 0.0712937 6.25723C0.117944 6.33495 0.184846 6.39853 0.264844 6.44117L1.99984 7.36679V10.393C1.99932 10.6386 2.08971 10.8757 2.25359 11.0587C3.07234 11.9705 4.90672 13.4999 7.99984 13.4999C9.02544 13.5084 10.0434 13.3226 10.9998 12.9524V14.9999C10.9998 15.1325 11.0525 15.2597 11.1463 15.3535C11.2401 15.4472 11.3672 15.4999 11.4998 15.4999C11.6325 15.4999 11.7596 15.4472 11.8534 15.3535C11.9472 15.2597 11.9998 15.1325 11.9998 14.9999V12.4693C12.6518 12.0929 13.241 11.617 13.7461 11.0587C13.91 10.8757 14.0004 10.6386 13.9998 10.393V7.36679L15.7348 6.44117C15.8148 6.39853 15.8817 6.33495 15.9284 6.25723C15.975 6.17951 15.9997 6.09057 15.9997 5.99992C15.9997 5.90927 15.975 5.82033 15.9284 5.7426C15.8817 5.66488 15.8148 5.6013 15.7348 5.55867ZM7.99984 12.4999C5.29547 12.4999 3.70484 11.1787 2.99984 10.393V7.89992L7.76484 10.4412C7.83718 10.4797 7.91789 10.4998 7.99984 10.4998C8.0818 10.4998 8.1625 10.4797 8.23484 10.4412L10.9998 8.96679V11.863C10.2123 12.2305 9.21984 12.4999 7.99984 12.4999ZM12.9998 10.3905C12.7001 10.7231 12.3648 11.0218 11.9998 11.2812V8.43304L12.9998 7.89992V10.3905ZM11.7498 7.43367L11.7361 7.42554L8.23609 5.55867C8.11932 5.49902 7.98379 5.48764 7.8587 5.52696C7.73361 5.56629 7.62898 5.65318 7.56734 5.76891C7.50571 5.88464 7.492 6.01996 7.52917 6.1457C7.56635 6.27145 7.65143 6.37755 7.76609 6.44117L10.6873 7.99992L7.99984 9.43304L1.56234 5.99992L7.99984 2.56679L14.4373 5.99992L11.7498 7.43367Z" fill="#09090B"/>
</svg>
