<svg width="16" height="16" viewBox="0 0 16 16" fill="none" xmlns="http://www.w3.org/2000/svg">
<path d="M4.48 9.21933C4.32 9.23933 4.16 9.26067 4 9.28333M4.48 9.21933C6.8175 8.92607 9.1825 8.92607 11.52 9.21933M4.48 9.21933L4.22667 12M11.52 9.21933C11.68 9.23933 11.84 9.26067 12 9.28333M11.52 9.21933L11.7733 12L11.926 13.682C11.9354 13.7858 11.9232 13.8904 11.8899 13.9891C11.8567 14.0879 11.8033 14.1787 11.733 14.2556C11.6628 14.3326 11.5773 14.3941 11.4819 14.4361C11.3866 14.4782 11.2835 14.5 11.1793 14.5H4.82067C4.37933 14.5 4.034 14.1213 4.074 13.682L4.22667 12M4.22667 12H3.5C3.10218 12 2.72064 11.842 2.43934 11.5607C2.15804 11.2794 2 10.8978 2 10.5V6.304C2 5.58333 2.512 4.96067 3.22467 4.854C3.64863 4.79058 4.07383 4.73568 4.5 4.68933M11.772 12H12.4993C12.6964 12.0001 12.8915 11.9614 13.0736 11.886C13.2556 11.8107 13.4211 11.7002 13.5604 11.5609C13.6998 11.4216 13.8103 11.2562 13.8858 11.0742C13.9612 10.8921 14 10.697 14 10.5V6.304C14 5.58333 13.488 4.96067 12.7753 4.854C12.3514 4.79058 11.9262 4.73568 11.5 4.68933M11.5 4.68933C9.17353 4.4362 6.82647 4.4362 4.5 4.68933M11.5 4.68933V2.25C11.5 1.836 11.164 1.5 10.75 1.5H5.25C4.836 1.5 4.5 1.836 4.5 2.25V4.68933M12 7H12.0053V7.00533H12V7ZM10 7H10.0053V7.00533H10V7Z" stroke="#18181B" stroke-linecap="round" stroke-linejoin="round"/>
</svg>
