<svg width="16" height="16" viewBox="0 0 16 16" fill="none" xmlns="http://www.w3.org/2000/svg">
<path d="M14.7188 13.5503C13.3088 12.8628 12.5 11.3891 12.5 9.50033V8.42033C12.5005 8.21997 12.4406 8.0241 12.3281 7.85831C12.2156 7.69251 12.0558 7.56449 11.8694 7.49095L10.3125 6.8747C10.19 6.82571 10.0919 6.73029 10.0394 6.60925C9.98697 6.4882 9.98449 6.35133 10.0325 6.22846L11.365 2.91596C11.4554 2.69854 11.5011 2.46512 11.4992 2.22965C11.4972 1.99419 11.4478 1.76154 11.3539 1.54562C11.2599 1.32971 11.1234 1.13497 10.9524 0.973082C10.7814 0.811191 10.5795 0.685472 10.3588 0.603455C9.92885 0.445933 9.45445 0.462276 9.0364 0.649012C8.61834 0.835747 8.28959 1.17815 8.12001 1.60346C8.11977 1.60595 8.11977 1.60846 8.12001 1.61096L6.80626 4.9372C6.7574 5.06026 6.66173 5.15892 6.54022 5.21152C6.41872 5.26413 6.28131 5.2664 6.15814 5.21783L4.56939 4.57095C4.38621 4.49673 4.18505 4.47885 3.99165 4.5196C3.79826 4.56035 3.62142 4.65788 3.48376 4.79971C2.16751 6.15283 1.50001 7.73408 1.50001 9.49971C1.49655 11.3065 2.19531 13.044 3.44876 14.3453C3.49573 14.3944 3.5522 14.4334 3.61474 14.46C3.67728 14.4865 3.74457 14.5 3.81251 14.4997H14.5C14.613 14.4996 14.7227 14.4612 14.8111 14.3908C14.8995 14.3204 14.9614 14.2221 14.9868 14.112C15.0121 14.0018 14.9995 13.8864 14.9508 13.7844C14.9021 13.6824 14.8203 13.5999 14.7188 13.5503ZM4.19626 5.4997L5.78439 6.14346C5.96771 6.21679 6.1637 6.25322 6.36113 6.25064C6.55856 6.24806 6.75353 6.20653 6.93488 6.12844C7.11622 6.05034 7.28036 5.9372 7.41788 5.79553C7.5554 5.65385 7.6636 5.48642 7.73626 5.30283L9.04876 1.99033C9.20876 1.60846 9.64064 1.41096 10.0131 1.55283C10.1081 1.58807 10.195 1.64217 10.2684 1.71189C10.3419 1.7816 10.4005 1.86548 10.4407 1.95847C10.4809 2.05145 10.5018 2.15161 10.5022 2.2529C10.5027 2.35419 10.4826 2.45452 10.4431 2.54783L9.10564 5.8597C8.95921 6.22913 8.96535 6.64156 9.12272 7.00646C9.28009 7.37136 9.57583 7.6589 9.94501 7.80595L11.5 8.42033V9.49971C11.5 9.52033 11.5 9.54096 11.5 9.56221L3.48564 6.35658C3.69871 6.05202 3.93638 5.76544 4.19626 5.4997ZM7.19626 13.4997C6.45184 12.7856 5.92447 11.8756 5.67501 10.8747C5.64025 10.7481 5.55709 10.6403 5.44349 10.5745C5.32989 10.5087 5.19496 10.4902 5.06785 10.523C4.94073 10.5558 4.83163 10.6373 4.76409 10.7499C4.69656 10.8625 4.67601 10.9971 4.70689 11.1247C4.92497 11.9858 5.31533 12.7937 5.85439 13.4997H4.02751C3.04138 12.401 2.4972 10.976 2.50001 9.49971C2.4939 8.7175 2.65878 7.9434 2.98314 7.23158L11.5956 10.6766C11.7831 11.8016 12.2556 12.7691 12.9638 13.4991L7.19626 13.4997Z" fill="#09090B"/>
</svg>
